<svg viewBox="0 0 24 24" fill="none" xmlns="http://www.w3.org/2000/svg">
  <path d="M3.47883 21.8751H14.1226C14.668 21.8751 15.1101 21.433 15.1101 20.8876V9.5978C15.1101 9.33483 15.0052 9.08272 14.8187 8.89735L11.2361 5.3371C11.0511 5.15324 10.8008 5.05005 10.54 5.05005H3.47883C2.93345 5.05005 2.49133 5.49217 2.49133 6.03755V20.8876C2.49133 21.433 2.93345 21.8751 3.47883 21.8751Z" stroke="#333333" stroke-width="1.2"/>
  <path d="M15.11 9.27783L11.8349 9.27783C11.2895 9.27783 10.8474 8.83571 10.8474 8.29033L10.8474 5.04989" stroke="#333333" stroke-width="1.2"/>
  <path d="M5.26453 16.9896C5.26453 17.7716 6.06966 18.4051 7.06303 18.4051C8.05641 18.4051 8.86154 17.7716 8.86154 16.9896C8.86154 16.2083 8.05641 15.5741 7.06303 15.5741C6.06966 15.5741 5.26453 14.9406 5.26453 14.1587C5.26453 13.3773 6.06966 12.7432 7.06303 12.7432C8.05641 12.7432 8.86154 13.3773 8.86154 14.1587" stroke="#333333" stroke-width="1.2" stroke-linecap="round" stroke-linejoin="round"/>
  <path d="M6.96802 11.6257V12.3688" stroke="#333333" stroke-width="1.2" stroke-linecap="round" stroke-linejoin="round"/>
  <path d="M6.96802 18.7771V19.5201" stroke="#333333" stroke-width="1.2" stroke-linecap="round" stroke-linejoin="round"/>
  <path d="M17.4894 18.9501H20.521C21.0664 18.9501 21.5085 18.508 21.5085 17.9626V6.67281C21.5085 6.40984 21.4036 6.15773 21.2171 5.97236L17.6344 2.4121C17.4494 2.22825 17.1992 2.12505 16.9384 2.12505L10.3251 2.125" stroke="#333333" stroke-width="1.2"/>
  <path d="M21.5084 6.35303L18.2332 6.35303C17.6878 6.35303 17.2457 5.91091 17.2457 5.36553L17.2457 2.12509" stroke="#333333" stroke-width="1.2"/>
</svg>
