<svg width="45" height="41" viewBox="0 0 45 41" fill="none" xmlns="http://www.w3.org/2000/svg">
<rect x="6" y="2" width="39" height="39" rx="19.5" fill="#EC111A"/>
<path d="M21.419 33.7663C22.2666 33.7663 22.9537 33.0792 22.9537 32.2316C22.9537 31.384 22.2666 30.6969 21.419 30.6969C20.5714 30.6969 19.8843 31.384 19.8843 32.2316C19.8843 33.0792 20.5714 33.7663 21.419 33.7663Z" stroke="white" stroke-width="1.1" stroke-linejoin="round"/>
<path d="M32.6735 33.7663C33.5211 33.7663 34.2082 33.0792 34.2082 32.2316C34.2082 31.384 33.5211 30.6969 32.6735 30.6969C31.8259 30.6969 31.1388 31.384 31.1388 32.2316C31.1388 33.0792 31.8259 33.7663 32.6735 33.7663Z" stroke="white" stroke-width="1.1" stroke-linejoin="round"/>
<path d="M17.3263 16.3727H36.2545L34.7944 24.6468C34.7513 24.8913 34.5388 25.0695 34.2906 25.0695H19.8842" stroke="white" stroke-width="1.1" stroke-linejoin="round"/>
<path d="M13.7454 12.7918H16.559L20.0643 25.3105C20.1145 25.4901 20.14 25.6757 20.14 25.8622V27.3716C20.14 28.3605 20.9417 29.1621 21.9305 29.1621H34.2083" stroke="white" stroke-width="1.1" stroke-linecap="round" stroke-linejoin="round"/>
<rect x="0.5" y="0.5" width="15" height="15" rx="7.5" fill="#7849B8" stroke="white"/>
<path d="M7.64925 12V5.748L5.70525 6.84L4.94925 5.532L7.90125 3.744H9.30525V12H7.64925Z" fill="white"/>
</svg>
