<svg viewBox="0 0 24 24" fill="none" xmlns="http://www.w3.org/2000/svg">
  <path fill-rule="evenodd" clip-rule="evenodd" d="M0.666809 5.62617C0.666809 4.79211 1.34295 4.11597 2.17701 4.11597H21.8233C22.6573 4.11597 23.3335 4.79211 23.3335 5.62617V18.3739C23.3335 19.2079 22.6573 19.8841 21.8233 19.8841H2.17701C1.34295 19.8841 0.666809 19.2079 0.666809 18.3739V5.62617Z" stroke="#333333" stroke-width="1.2" stroke-linecap="round" stroke-linejoin="round"/>
  <mask id="mask0_299_115349" style="mask-type:luminance" maskUnits="userSpaceOnUse" x="3" y="6" width="6" height="3">
    <path fill-rule="evenodd" clip-rule="evenodd" d="M3.55096 6.09766H8.2147V8.83865H3.55096V6.09766Z" fill="white"/>
  </mask>
  <g mask="url(#mask0_299_115349)">
    <path d="M7.23634 7.19615H5.59053C4.65188 7.19615 3.87886 7.91474 3.77802 8.83865H3.7777C3.63321 8.57393 3.55096 8.26948 3.55096 7.94557C3.55096 6.92499 4.36744 6.09766 5.37461 6.09766H8.2147L7.23634 7.19615Z" fill="#333333"/>
  </g>
  <mask id="mask1_299_115349" style="mask-type:luminance" maskUnits="userSpaceOnUse" x="2" y="9" width="6" height="3">
    <path fill-rule="evenodd" clip-rule="evenodd" d="M2.96637 9.24951H7.6301V11.9905H2.96637V9.24951Z" fill="white"/>
  </mask>
  <g mask="url(#mask1_299_115349)">
    <path d="M3.94473 10.892H5.59054C6.52919 10.892 7.30221 10.1734 7.40306 9.24951H7.40337C7.54787 9.51422 7.63011 9.81867 7.63011 10.1426C7.63011 11.1632 6.81363 11.9905 5.80646 11.9905H2.96637L3.94473 10.892Z" fill="#333333"/>
  </g>
  <path d="M7.05543 9.0441C7.05543 9.86384 6.39962 10.5284 5.59065 10.5284C4.78166 10.5284 4.12585 9.86384 4.12585 9.0441C4.12585 8.22435 4.78166 7.55981 5.59065 7.55981C6.39962 7.55981 7.05543 8.22435 7.05543 9.0441Z" fill="#333333"/>
  <path fill-rule="evenodd" clip-rule="evenodd" d="M3.00057 14.656C3.00057 14.3909 3.21548 14.176 3.48057 14.176H5.45159C5.71668 14.176 5.93159 14.3909 5.93159 14.656C5.93159 14.9211 5.71668 15.136 5.45159 15.136H3.48057C3.21548 15.136 3.00057 14.9211 3.00057 14.656ZM7.43524 14.656C7.43524 14.3909 7.65015 14.176 7.91524 14.176H9.88626C10.1514 14.176 10.3663 14.3909 10.3663 14.656C10.3663 14.9211 10.1514 15.136 9.88626 15.136H7.91524C7.65015 15.136 7.43524 14.9211 7.43524 14.656ZM12.3499 14.176C12.0848 14.176 11.8699 14.3909 11.8699 14.656C11.8699 14.9211 12.0848 15.136 12.3499 15.136H14.3209C14.586 15.136 14.8009 14.9211 14.8009 14.656C14.8009 14.3909 14.586 14.176 14.3209 14.176H12.3499ZM16.3049 14.656C16.3049 14.3909 16.5198 14.176 16.7849 14.176H18.7559C19.021 14.176 19.2359 14.3909 19.2359 14.656C19.2359 14.9211 19.021 15.136 18.7559 15.136H16.7849C16.5198 15.136 16.3049 14.9211 16.3049 14.656ZM3.47969 16.5589C3.2146 16.5589 2.99969 16.7738 2.99969 17.0389C2.99969 17.304 3.2146 17.5189 3.47969 17.5189H11.3638C11.6288 17.5189 11.8438 17.304 11.8438 17.0389C11.8438 16.7738 11.6288 16.5589 11.3638 16.5589H3.47969Z" fill="#333333"/>
</svg>
