<svg viewBox="0 0 24 24" fill="none" xmlns="http://www.w3.org/2000/svg">
  <path d="M12 12.6174V20.4552C12 22.183 11.3079 23.3333 9.90861 23.3333C8.50937 23.3333 7.8222 22.2528 7.8222 20.4552" stroke="#333333" stroke-width="1.2" stroke-linecap="round" stroke-linejoin="round"/>
  <path fill-rule="evenodd" clip-rule="evenodd" d="M11.9999 3.15649C17.4774 3.15649 20.7971 5.89522 21.9589 11.3727C20.6311 10.7087 19.3032 10.9577 17.9753 12.1196C16.1827 10.9245 14.3918 11.0058 12.6025 12.3636V12.3636C12.2464 12.6342 11.7535 12.6342 11.3974 12.3636C9.61145 11.0058 7.82049 10.9245 6.02455 12.1196C4.5307 10.961 3.20284 10.712 2.04095 11.3727C3.20284 5.89522 6.5225 3.15649 11.9999 3.15649Z" stroke="#333333" stroke-width="1.2" stroke-linecap="round" stroke-linejoin="round"/>
  <mask id="mask0_299_97622" style="mask-type:luminance" maskUnits="userSpaceOnUse" x="2" y="3" width="20" height="10">
    <path fill-rule="evenodd" clip-rule="evenodd" d="M11.9999 3.15649C17.4774 3.15649 20.7971 5.89522 21.9589 11.3727C20.6311 10.7087 19.3032 10.9577 17.9753 12.1196C16.1827 10.9245 14.3918 11.0058 12.6025 12.3636C12.2464 12.6342 11.7535 12.6342 11.3974 12.3636C9.61145 11.0058 7.82049 10.9245 6.02455 12.1196C4.5307 10.961 3.20284 10.712 2.04095 11.3727C3.20284 5.89522 6.5225 3.15649 11.9999 3.15649Z" fill="white"/>
  </mask>
  <g mask="url(#mask0_299_97622)">
    <path d="M6.02459 12.6177C5.89014 7.1004 8.70356 2.65869 12 2.65869C15.2964 2.65869 17.836 7.14024 17.9754 12.6177" stroke="#333333" stroke-width="1.2" stroke-linecap="round" stroke-linejoin="round"/>
  </g>
  <path d="M12 0.666748V4.65034" stroke="#333333" stroke-width="1.2" stroke-linecap="round" stroke-linejoin="round"/>
</svg>
