<svg viewBox="0 0 24 24" fill="none" xmlns="http://www.w3.org/2000/svg">
  <path fill-rule="evenodd" clip-rule="evenodd" d="M8.41617 12.2466C6.9217 10.7473 2.12314 10.5754 2.12314 10.5754C1.99998 10.5652 1.87855 10.6097 1.79116 10.697C1.70377 10.7844 1.65929 10.9059 1.66954 11.029C1.66954 11.029 1.84143 15.8276 3.33591 17.3173C4.60597 18.5873 7.38484 18.3486 8.41617 17.3173C9.4475 16.2859 9.68624 13.4975 8.41617 12.2466Z" stroke="#333333" stroke-width="1.2" stroke-linecap="round" stroke-linejoin="round"/>
  <path fill-rule="evenodd" clip-rule="evenodd" d="M14.9861 13.2158C16.7862 11.8168 21.9285 12.1606 21.9285 12.1606C22.0507 12.1668 22.1644 12.2255 22.2402 12.3215C22.3161 12.4175 22.347 12.5416 22.3248 12.662C22.3248 12.662 21.6802 17.556 19.7703 19.0935C18.2759 20.2967 15.4063 19.7285 14.4084 18.5348C13.4105 17.3412 13.4725 14.4047 14.9861 13.2158Z" stroke="#333333" stroke-width="1.2" stroke-linecap="round" stroke-linejoin="round"/>
  <path d="M17.0201 16.2334C17.0201 16.2334 11.0565 17.7947 10.8751 23.3334C10.8178 15.8848 5.6134 14.5193 5.6134 14.5193" stroke="#333333" stroke-width="1.2" stroke-linecap="round" stroke-linejoin="round"/>
  <path d="M11.8074 0.666748V1.60795" stroke="#333333" stroke-width="1.2" stroke-linecap="round" stroke-linejoin="round"/>
  <path d="M11.8074 10.0557V10.9969" stroke="#333333" stroke-width="1.2" stroke-linecap="round" stroke-linejoin="round"/>
  <path d="M9.17432 7.78655C9.17432 8.86633 10.3292 9.74402 11.767 9.74402C13.2047 9.74402 14.3711 8.86633 14.3711 7.78655C14.3711 6.70677 13.2163 5.82908 11.7785 5.82908C10.3407 5.82908 9.17432 4.95717 9.17432 3.87739C9.17432 2.79761 10.3292 1.91992 11.767 1.91992C13.2047 1.91992 14.3711 2.79761 14.3711 3.87739" stroke="#333333" stroke-width="1.2" stroke-linecap="round" stroke-linejoin="round"/>
</svg>
