<svg viewBox="0 0 24 24" fill="none" xmlns="http://www.w3.org/2000/svg">
  <path d="M9.92063 9.83571C9.66396 9.10596 9.53397 8.33769 9.53629 7.56412C9.53755 4.55202 11.4929 1.88897 14.3664 0.985854C17.24 0.0827363 20.3672 1.14837 22.0914 3.61818C23.8156 6.088 23.738 9.39091 21.8998 11.7771C20.0616 14.1632 16.8877 15.0809 14.0598 14.0438" stroke="#333333" stroke-width="1.2" stroke-linecap="round" stroke-linejoin="round"/>
  <path fill-rule="evenodd" clip-rule="evenodd" d="M0.666626 16.4337C0.666626 12.6237 3.75521 9.53516 7.56518 9.53516C11.3751 9.53516 14.4637 12.6237 14.4637 16.4337C14.4637 20.2437 11.3751 23.3323 7.56518 23.3323C3.75521 23.3323 0.666626 20.2437 0.666626 16.4337Z" stroke="#333333" stroke-width="1.2" stroke-linecap="round" stroke-linejoin="round"/>
  <path d="M16.4643 3.12939V3.93258" stroke="#333333" stroke-width="1.2" stroke-linecap="round" stroke-linejoin="round"/>
  <path d="M16.4643 11.1416V11.9448" stroke="#333333" stroke-width="1.2" stroke-linecap="round" stroke-linejoin="round"/>
  <path d="M14.2174 9.20511C14.2174 10.1266 15.2029 10.8755 16.4299 10.8755C17.6568 10.8755 18.6423 10.1266 18.6423 9.20511C18.6423 8.28366 17.6568 7.53467 16.4299 7.53467C15.2029 7.53467 14.2174 6.79061 14.2174 5.86916C14.2174 4.94772 15.2029 4.19873 16.4299 4.19873C17.6568 4.19873 18.6423 4.94772 18.6423 5.86916" stroke="#333333" stroke-width="1.2" stroke-linecap="round" stroke-linejoin="round"/>
  <path fill-rule="evenodd" clip-rule="evenodd" d="M0.666626 16.4337C0.666626 12.6237 3.75521 9.53516 7.56518 9.53516C11.3751 9.53516 14.4637 12.6237 14.4637 16.4337C14.4637 20.2437 11.3751 23.3323 7.56518 23.3323C3.75521 23.3323 0.666626 20.2437 0.666626 16.4337Z" stroke="#333333" stroke-width="1.2" stroke-linecap="round" stroke-linejoin="round"/>
  <path d="M7.59483 11.999V12.8022" stroke="#333333" stroke-width="1.2" stroke-linecap="round" stroke-linejoin="round"/>
  <path d="M7.59483 20.0112V20.8144" stroke="#333333" stroke-width="1.2" stroke-linecap="round" stroke-linejoin="round"/>
  <path d="M5.34784 18.0745C5.34784 18.9959 6.33335 19.7449 7.5603 19.7449C8.78726 19.7449 9.77277 18.9959 9.77277 18.0745C9.77277 17.153 8.78726 16.4041 7.5603 16.4041C6.33335 16.4041 5.34784 15.66 5.34784 14.7385C5.34784 13.8171 6.33335 13.0681 7.5603 13.0681C8.78726 13.0681 9.77277 13.8171 9.77277 14.7385" stroke="#333333" stroke-width="1.2" stroke-linecap="round" stroke-linejoin="round"/>
</svg>
