<svg viewBox="0 0 24 24" fill="none" xmlns="http://www.w3.org/2000/svg">
  <path d="M19.2214 15.1394L22.1801 20.3247H18.745L16.9898 23.3335L14.1966 18.4642" stroke="#333333" stroke-width="1.2" stroke-linecap="round" stroke-linejoin="round"/>
  <path d="M4.76373 15.1646L1.82007 20.3247H5.25517L7.03541 23.3336L9.81358 18.4843" stroke="#333333" stroke-width="1.2" stroke-linecap="round" stroke-linejoin="round"/>
  <path fill-rule="evenodd" clip-rule="evenodd" d="M21.0013 9.6933C21.0013 14.6785 16.96 18.7198 11.9747 18.7198C6.98951 18.7198 2.94818 14.6785 2.94818 9.6933C2.94818 4.70807 6.98951 0.666748 11.9747 0.666748C14.3687 0.666748 16.6647 1.61776 18.3575 3.31056C20.0503 5.00337 21.0013 7.29931 21.0013 9.6933Z" stroke="#333333" stroke-width="1.2" stroke-linecap="round" stroke-linejoin="round"/>
  <path fill-rule="evenodd" clip-rule="evenodd" d="M11.975 4.67871L13.5246 7.97842L16.9898 8.50998L14.4824 11.0775L15.0741 14.7082L11.975 12.9932L8.8759 14.7082L9.46764 11.0775L6.96027 8.50998L10.4255 7.97842L11.975 4.67871Z" stroke="#333333" stroke-width="1.2" stroke-linecap="round" stroke-linejoin="round"/>
</svg>
