<svg viewBox="0 0 25 24" fill="none" xmlns="http://www.w3.org/2000/svg">
  <path d="M10.7769 6.86166V3.68081C10.7769 2.0592 9.46232 0.744629 7.84072 0.744629C6.21911 0.744629 4.90454 2.0592 4.90454 3.68081V6.86166" stroke="#333333" stroke-width="1.2" stroke-linecap="round" stroke-linejoin="round"/>
  <path d="M12.7343 19.3403H1.68691C1.38246 19.3403 1.14769 19.0722 1.18793 18.7704L3.01114 5.09629C3.04449 4.8462 3.25782 4.65942 3.51013 4.65942H12.612L13.5433 11.5281" stroke="#333333" stroke-width="1.2" stroke-linecap="round" stroke-linejoin="round"/>
  <path fill-rule="evenodd" clip-rule="evenodd" d="M12.7342 11.5105H23.5002V21.2416C23.5002 22.3537 22.5987 23.2552 21.4866 23.2552H14.7478C13.6357 23.2552 12.7342 22.3537 12.7342 21.2416L12.7342 11.5105Z" stroke="#333333" stroke-width="1.2" stroke-linecap="round" stroke-linejoin="round"/>
  <path d="M21.053 13.7127V10.5319C21.053 8.91027 19.7384 7.5957 18.1168 7.5957C16.4952 7.5957 15.1807 8.91027 15.1807 10.5319V13.7127" stroke="#333333" stroke-width="1.2" stroke-linecap="round" stroke-linejoin="round"/>
</svg>
