<svg viewBox="0 0 24 24" fill="none" xmlns="http://www.w3.org/2000/svg">
  <path d="M5.6012 1.84961L2.68402 4.8073L5.6012 7.765" stroke="#333333" stroke-width="1.2" stroke-linecap="round" stroke-linejoin="round"/>
  <path d="M3.05938 4.80786H16.9179C19.3526 4.80786 21.3278 6.80981 21.3278 9.27863V13.7494" stroke="#333333" stroke-width="1.2" stroke-linecap="round" stroke-linejoin="round"/>
  <path d="M18.4355 22.1505L21.2607 19.2693L18.4355 16.3882" stroke="#333333" stroke-width="1.2" stroke-linecap="round" stroke-linejoin="round"/>
  <path d="M20.9189 19.2684H7.14125C4.72077 19.2684 2.75745 17.2665 2.75745 14.7977V10.3269" stroke="#333333" stroke-width="1.2" stroke-linecap="round" stroke-linejoin="round"/>
  <path d="M10.1793 13.2881C10.1793 14.0855 11.0139 14.7316 12.0435 14.7316C13.0731 14.7316 13.9077 14.0855 13.9077 13.2881C13.9077 12.4913 13.0731 11.8447 12.0435 11.8447C11.0139 11.8447 10.1793 11.1986 10.1793 10.4012C10.1793 9.60443 11.0139 8.95776 12.0435 8.95776C13.0731 8.95776 13.9077 9.60443 13.9077 10.4012" stroke="#333333" stroke-width="1.2" stroke-linecap="round" stroke-linejoin="round"/>
  <path d="M11.9827 8.06277V8.52934" stroke="#333333" stroke-width="1.2" stroke-linecap="round" stroke-linejoin="round"/>
  <path d="M11.9827 15.0926V15.4969" stroke="#333333" stroke-width="1.2" stroke-linecap="round" stroke-linejoin="round"/>
</svg>
