<svg width="60" height="60" viewBox="0 0 60 60" fill="none" xmlns="http://www.w3.org/2000/svg">
<path d="M14.8886 49V42.7H15.4196L17.8136 46.966L20.1896 42.7H20.7206V49H20.0366V44.293L18.0566 47.83H17.5346L15.5546 44.302V49H14.8886ZM22.5757 43.519C22.4437 43.519 22.3357 43.483 22.2517 43.411C22.1737 43.333 22.1347 43.225 22.1347 43.087C22.1347 42.949 22.1737 42.844 22.2517 42.772C22.3357 42.694 22.4437 42.655 22.5757 42.655C22.7077 42.655 22.8127 42.694 22.8907 42.772C22.9747 42.844 23.0167 42.949 23.0167 43.087C23.0167 43.225 22.9747 43.333 22.8907 43.411C22.8127 43.483 22.7077 43.519 22.5757 43.519ZM22.2517 49V44.5H22.8997V49H22.2517ZM26.4638 49V42.7H27.8858C28.7438 42.7 29.4008 42.88 29.8568 43.24C30.3188 43.594 30.5498 44.101 30.5498 44.761C30.5498 45.421 30.3188 45.931 29.8568 46.291C29.4008 46.645 28.7438 46.822 27.8858 46.822H27.1478V49H26.4638ZM27.8858 43.33H27.1478V46.192H27.8858C29.1938 46.192 29.8478 45.715 29.8478 44.761C29.8478 43.807 29.1938 43.33 27.8858 43.33ZM33.4502 49.099C33.0002 49.099 32.6102 49.003 32.2802 48.811C31.9502 48.613 31.6922 48.34 31.5062 47.992C31.3262 47.638 31.2362 47.227 31.2362 46.759C31.2362 46.297 31.3232 45.889 31.4972 45.535C31.6712 45.181 31.9112 44.905 32.2172 44.707C32.5232 44.503 32.8742 44.401 33.2702 44.401C33.8522 44.401 34.3112 44.599 34.6472 44.995C34.9892 45.385 35.1602 45.91 35.1602 46.57C35.1602 46.636 35.1572 46.714 35.1512 46.804C35.1452 46.894 35.1362 46.969 35.1242 47.029H31.9112C31.9592 47.485 32.1182 47.845 32.3882 48.109C32.6582 48.367 33.0242 48.496 33.4862 48.496C33.9422 48.496 34.3442 48.379 34.6922 48.145L34.9712 48.631C34.7792 48.781 34.5512 48.898 34.2872 48.982C34.0292 49.06 33.7502 49.099 33.4502 49.099ZM33.2702 45.004C32.8922 45.004 32.5832 45.139 32.3432 45.409C32.1032 45.673 31.9622 46.027 31.9202 46.471H34.5212C34.5032 46.003 34.3862 45.643 34.1702 45.391C33.9602 45.133 33.6602 45.004 33.2702 45.004ZM36.2703 49V44.5H36.8553L36.8733 45.355C36.9933 45.055 37.1553 44.827 37.3593 44.671C37.5633 44.509 37.8033 44.428 38.0793 44.428C38.3613 44.428 38.6043 44.506 38.8083 44.662L38.5023 45.184C38.3643 45.106 38.2023 45.067 38.0163 45.067C37.6743 45.067 37.4043 45.229 37.2063 45.553C37.0143 45.877 36.9183 46.324 36.9183 46.894V49H36.2703ZM39.791 49V45.076H39.179V44.5H39.791V43.897C39.791 42.853 40.223 42.331 41.087 42.331C41.255 42.331 41.411 42.355 41.555 42.403C41.705 42.445 41.828 42.496 41.924 42.556L41.672 43.051C41.588 43.015 41.501 42.988 41.411 42.97C41.327 42.946 41.234 42.934 41.132 42.934C40.898 42.934 40.724 43.012 40.61 43.168C40.496 43.318 40.439 43.561 40.439 43.897V44.5H41.582V45.076H40.439V49H39.791ZM42.7818 43.519C42.6498 43.519 42.5418 43.483 42.4578 43.411C42.3798 43.333 42.3408 43.225 42.3408 43.087C42.3408 42.949 42.3798 42.844 42.4578 42.772C42.5418 42.694 42.6498 42.655 42.7818 42.655C42.9138 42.655 43.0188 42.694 43.0968 42.772C43.1808 42.844 43.2228 42.949 43.2228 43.087C43.2228 43.225 43.1808 43.333 43.0968 43.411C43.0188 43.483 42.9138 43.519 42.7818 43.519ZM42.4578 49V44.5H43.1058V49H42.4578ZM44.5496 49V42.43H45.1976V49H44.5496Z" fill="#707070"/>
<path d="M14.8886 49V42.7H15.4196L17.8136 46.966L20.1896 42.7H20.7206V49H20.0366V44.293L18.0566 47.83H17.5346L15.5546 44.302V49H14.8886ZM22.5757 43.519C22.4437 43.519 22.3357 43.483 22.2517 43.411C22.1737 43.333 22.1347 43.225 22.1347 43.087C22.1347 42.949 22.1737 42.844 22.2517 42.772C22.3357 42.694 22.4437 42.655 22.5757 42.655C22.7077 42.655 22.8127 42.694 22.8907 42.772C22.9747 42.844 23.0167 42.949 23.0167 43.087C23.0167 43.225 22.9747 43.333 22.8907 43.411C22.8127 43.483 22.7077 43.519 22.5757 43.519ZM22.2517 49V44.5H22.8997V49H22.2517ZM26.4638 49V42.7H27.8858C28.7438 42.7 29.4008 42.88 29.8568 43.24C30.3188 43.594 30.5498 44.101 30.5498 44.761C30.5498 45.421 30.3188 45.931 29.8568 46.291C29.4008 46.645 28.7438 46.822 27.8858 46.822H27.1478V49H26.4638ZM27.8858 43.33H27.1478V46.192H27.8858C29.1938 46.192 29.8478 45.715 29.8478 44.761C29.8478 43.807 29.1938 43.33 27.8858 43.33ZM33.4502 49.099C33.0002 49.099 32.6102 49.003 32.2802 48.811C31.9502 48.613 31.6922 48.34 31.5062 47.992C31.3262 47.638 31.2362 47.227 31.2362 46.759C31.2362 46.297 31.3232 45.889 31.4972 45.535C31.6712 45.181 31.9112 44.905 32.2172 44.707C32.5232 44.503 32.8742 44.401 33.2702 44.401C33.8522 44.401 34.3112 44.599 34.6472 44.995C34.9892 45.385 35.1602 45.91 35.1602 46.57C35.1602 46.636 35.1572 46.714 35.1512 46.804C35.1452 46.894 35.1362 46.969 35.1242 47.029H31.9112C31.9592 47.485 32.1182 47.845 32.3882 48.109C32.6582 48.367 33.0242 48.496 33.4862 48.496C33.9422 48.496 34.3442 48.379 34.6922 48.145L34.9712 48.631C34.7792 48.781 34.5512 48.898 34.2872 48.982C34.0292 49.06 33.7502 49.099 33.4502 49.099ZM33.2702 45.004C32.8922 45.004 32.5832 45.139 32.3432 45.409C32.1032 45.673 31.9622 46.027 31.9202 46.471H34.5212C34.5032 46.003 34.3862 45.643 34.1702 45.391C33.9602 45.133 33.6602 45.004 33.2702 45.004ZM36.2703 49V44.5H36.8553L36.8733 45.355C36.9933 45.055 37.1553 44.827 37.3593 44.671C37.5633 44.509 37.8033 44.428 38.0793 44.428C38.3613 44.428 38.6043 44.506 38.8083 44.662L38.5023 45.184C38.3643 45.106 38.2023 45.067 38.0163 45.067C37.6743 45.067 37.4043 45.229 37.2063 45.553C37.0143 45.877 36.9183 46.324 36.9183 46.894V49H36.2703ZM39.791 49V45.076H39.179V44.5H39.791V43.897C39.791 42.853 40.223 42.331 41.087 42.331C41.255 42.331 41.411 42.355 41.555 42.403C41.705 42.445 41.828 42.496 41.924 42.556L41.672 43.051C41.588 43.015 41.501 42.988 41.411 42.97C41.327 42.946 41.234 42.934 41.132 42.934C40.898 42.934 40.724 43.012 40.61 43.168C40.496 43.318 40.439 43.561 40.439 43.897V44.5H41.582V45.076H40.439V49H39.791ZM42.7818 43.519C42.6498 43.519 42.5418 43.483 42.4578 43.411C42.3798 43.333 42.3408 43.225 42.3408 43.087C42.3408 42.949 42.3798 42.844 42.4578 42.772C42.5418 42.694 42.6498 42.655 42.7818 42.655C42.9138 42.655 43.0188 42.694 43.0968 42.772C43.1808 42.844 43.2228 42.949 43.2228 43.087C43.2228 43.225 43.1808 43.333 43.0968 43.411C43.0188 43.483 42.9138 43.519 42.7818 43.519ZM42.4578 49V44.5H43.1058V49H42.4578ZM44.5496 49V42.43H45.1976V49H44.5496Z" fill="#707070"/>
<path d="M14.8886 49V42.7H15.4196L17.8136 46.966L20.1896 42.7H20.7206V49H20.0366V44.293L18.0566 47.83H17.5346L15.5546 44.302V49H14.8886ZM22.5757 43.519C22.4437 43.519 22.3357 43.483 22.2517 43.411C22.1737 43.333 22.1347 43.225 22.1347 43.087C22.1347 42.949 22.1737 42.844 22.2517 42.772C22.3357 42.694 22.4437 42.655 22.5757 42.655C22.7077 42.655 22.8127 42.694 22.8907 42.772C22.9747 42.844 23.0167 42.949 23.0167 43.087C23.0167 43.225 22.9747 43.333 22.8907 43.411C22.8127 43.483 22.7077 43.519 22.5757 43.519ZM22.2517 49V44.5H22.8997V49H22.2517ZM26.4638 49V42.7H27.8858C28.7438 42.7 29.4008 42.88 29.8568 43.24C30.3188 43.594 30.5498 44.101 30.5498 44.761C30.5498 45.421 30.3188 45.931 29.8568 46.291C29.4008 46.645 28.7438 46.822 27.8858 46.822H27.1478V49H26.4638ZM27.8858 43.33H27.1478V46.192H27.8858C29.1938 46.192 29.8478 45.715 29.8478 44.761C29.8478 43.807 29.1938 43.33 27.8858 43.33ZM33.4502 49.099C33.0002 49.099 32.6102 49.003 32.2802 48.811C31.9502 48.613 31.6922 48.34 31.5062 47.992C31.3262 47.638 31.2362 47.227 31.2362 46.759C31.2362 46.297 31.3232 45.889 31.4972 45.535C31.6712 45.181 31.9112 44.905 32.2172 44.707C32.5232 44.503 32.8742 44.401 33.2702 44.401C33.8522 44.401 34.3112 44.599 34.6472 44.995C34.9892 45.385 35.1602 45.91 35.1602 46.57C35.1602 46.636 35.1572 46.714 35.1512 46.804C35.1452 46.894 35.1362 46.969 35.1242 47.029H31.9112C31.9592 47.485 32.1182 47.845 32.3882 48.109C32.6582 48.367 33.0242 48.496 33.4862 48.496C33.9422 48.496 34.3442 48.379 34.6922 48.145L34.9712 48.631C34.7792 48.781 34.5512 48.898 34.2872 48.982C34.0292 49.06 33.7502 49.099 33.4502 49.099ZM33.2702 45.004C32.8922 45.004 32.5832 45.139 32.3432 45.409C32.1032 45.673 31.9622 46.027 31.9202 46.471H34.5212C34.5032 46.003 34.3862 45.643 34.1702 45.391C33.9602 45.133 33.6602 45.004 33.2702 45.004ZM36.2703 49V44.5H36.8553L36.8733 45.355C36.9933 45.055 37.1553 44.827 37.3593 44.671C37.5633 44.509 37.8033 44.428 38.0793 44.428C38.3613 44.428 38.6043 44.506 38.8083 44.662L38.5023 45.184C38.3643 45.106 38.2023 45.067 38.0163 45.067C37.6743 45.067 37.4043 45.229 37.2063 45.553C37.0143 45.877 36.9183 46.324 36.9183 46.894V49H36.2703ZM39.791 49V45.076H39.179V44.5H39.791V43.897C39.791 42.853 40.223 42.331 41.087 42.331C41.255 42.331 41.411 42.355 41.555 42.403C41.705 42.445 41.828 42.496 41.924 42.556L41.672 43.051C41.588 43.015 41.501 42.988 41.411 42.97C41.327 42.946 41.234 42.934 41.132 42.934C40.898 42.934 40.724 43.012 40.61 43.168C40.496 43.318 40.439 43.561 40.439 43.897V44.5H41.582V45.076H40.439V49H39.791ZM42.7818 43.519C42.6498 43.519 42.5418 43.483 42.4578 43.411C42.3798 43.333 42.3408 43.225 42.3408 43.087C42.3408 42.949 42.3798 42.844 42.4578 42.772C42.5418 42.694 42.6498 42.655 42.7818 42.655C42.9138 42.655 43.0188 42.694 43.0968 42.772C43.1808 42.844 43.2228 42.949 43.2228 43.087C43.2228 43.225 43.1808 43.333 43.0968 43.411C43.0188 43.483 42.9138 43.519 42.7818 43.519ZM42.4578 49V44.5H43.1058V49H42.4578ZM44.5496 49V42.43H45.1976V49H44.5496Z" fill="#707070"/>
<path fill-rule="evenodd" clip-rule="evenodd" d="M40.8758 32.1659C41.2257 31.5827 39.4234 24.5833 30.995 24.5833C22.5666 24.5833 20.8167 31.5827 21.1142 32.1659C21.4117 32.7492 25.5705 35.6656 31.0008 35.6656C36.4312 35.6656 40.5258 32.7492 40.8758 32.1659Z" fill="#7849B8"/>
<path d="M31.0009 22.8334C33.9001 22.8334 36.2504 20.4831 36.2504 17.5839C36.2504 14.6847 33.9001 12.3344 31.0009 12.3344C28.1016 12.3344 25.7513 14.6847 25.7513 17.5839C25.7513 20.4831 28.1016 22.8334 31.0009 22.8334Z" fill="#7849B8"/>
</svg>
