<svg width="60" height="60" viewBox="0 0 60 60" fill="none" xmlns="http://www.w3.org/2000/svg">
<path d="M5.37006 46V39.7H9.07806V40.33H6.05406V42.517H8.70906V43.147H6.05406V45.37H9.14106V46H5.37006ZM10.3777 46V41.5H10.9627L10.9807 42.292C11.1127 42.022 11.3047 41.806 11.5567 41.644C11.8147 41.482 12.1027 41.401 12.4207 41.401C13.1527 41.401 13.6267 41.737 13.8427 42.409C13.9627 42.097 14.1577 41.851 14.4277 41.671C14.7037 41.491 15.0127 41.401 15.3547 41.401C15.8767 41.401 16.2727 41.569 16.5427 41.905C16.8127 42.235 16.9477 42.718 16.9477 43.354V46H16.2997V43.39C16.2997 42.466 15.9667 42.004 15.3007 42.004C15.0427 42.004 14.8147 42.073 14.6167 42.211C14.4187 42.343 14.2627 42.529 14.1487 42.769C14.0407 43.003 13.9867 43.273 13.9867 43.579V46H13.3387V43.39C13.3387 42.466 13.0087 42.004 12.3487 42.004C12.0847 42.004 11.8537 42.073 11.6557 42.211C11.4577 42.343 11.3017 42.526 11.1877 42.76C11.0797 42.994 11.0257 43.261 11.0257 43.561V46H10.3777ZM20.2842 46.099C19.8342 46.099 19.4442 46.003 19.1142 45.811C18.7842 45.613 18.5262 45.34 18.3402 44.992C18.1602 44.638 18.0702 44.227 18.0702 43.759C18.0702 43.297 18.1572 42.889 18.3312 42.535C18.5052 42.181 18.7452 41.905 19.0512 41.707C19.3572 41.503 19.7082 41.401 20.1042 41.401C20.6862 41.401 21.1452 41.599 21.4812 41.995C21.8232 42.385 21.9942 42.91 21.9942 43.57C21.9942 43.636 21.9912 43.714 21.9852 43.804C21.9792 43.894 21.9702 43.969 21.9582 44.029H18.7452C18.7932 44.485 18.9522 44.845 19.2222 45.109C19.4922 45.367 19.8582 45.496 20.3202 45.496C20.7762 45.496 21.1782 45.379 21.5262 45.145L21.8052 45.631C21.6132 45.781 21.3852 45.898 21.1212 45.982C20.8632 46.06 20.5842 46.099 20.2842 46.099ZM20.1042 42.004C19.7262 42.004 19.4172 42.139 19.1772 42.409C18.9372 42.673 18.7962 43.027 18.7542 43.471H21.3552C21.3372 43.003 21.2202 42.643 21.0042 42.391C20.7942 42.133 20.4942 42.004 20.1042 42.004ZM23.1043 46V41.5H23.6893L23.7073 42.355C23.8273 42.055 23.9893 41.827 24.1933 41.671C24.3973 41.509 24.6373 41.428 24.9133 41.428C25.1953 41.428 25.4383 41.506 25.6423 41.662L25.3363 42.184C25.1983 42.106 25.0363 42.067 24.8503 42.067C24.5083 42.067 24.2383 42.229 24.0403 42.553C23.8483 42.877 23.7523 43.324 23.7523 43.894V46H23.1043ZM27.7734 44.587C27.4854 44.587 27.2244 44.539 26.9904 44.443C26.9424 44.539 26.9184 44.638 26.9184 44.74C26.9184 44.89 26.9604 45.001 27.0444 45.073C27.1344 45.145 27.2724 45.19 27.4584 45.208L28.4844 45.307C28.9464 45.349 29.2974 45.469 29.5374 45.667C29.7834 45.859 29.9064 46.132 29.9064 46.486C29.9064 46.936 29.7204 47.284 29.3484 47.53C28.9824 47.776 28.4784 47.899 27.8364 47.899C27.1824 47.899 26.6694 47.77 26.2974 47.512C25.9254 47.254 25.7394 46.897 25.7394 46.441C25.7394 46.207 25.7994 45.997 25.9194 45.811C26.0454 45.625 26.2134 45.481 26.4234 45.379C26.3334 45.247 26.2884 45.085 26.2884 44.893C26.2884 44.647 26.3754 44.413 26.5494 44.191C26.3754 44.047 26.2404 43.873 26.1444 43.669C26.0484 43.465 26.0004 43.24 26.0004 42.994C26.0004 42.682 26.0724 42.409 26.2164 42.175C26.3664 41.935 26.5734 41.746 26.8374 41.608C27.1074 41.47 27.4194 41.401 27.7734 41.401C28.1214 41.401 28.4304 41.47 28.7004 41.608H30.0054V42.067L29.2944 42.13C29.4624 42.382 29.5464 42.67 29.5464 42.994C29.5464 43.3 29.4714 43.573 29.3214 43.813C29.1774 44.053 28.9704 44.242 28.7004 44.38C28.4364 44.518 28.1274 44.587 27.7734 44.587ZM27.7734 44.02C28.1274 44.02 28.4034 43.927 28.6014 43.741C28.7994 43.555 28.8984 43.306 28.8984 42.994C28.8984 42.682 28.7994 42.433 28.6014 42.247C28.4034 42.061 28.1274 41.968 27.7734 41.968C27.4254 41.968 27.1494 42.061 26.9454 42.247C26.7474 42.433 26.6484 42.682 26.6484 42.994C26.6484 43.306 26.7474 43.555 26.9454 43.741C27.1494 43.927 27.4254 44.02 27.7734 44.02ZM26.3694 46.36C26.3694 46.672 26.5014 46.915 26.7654 47.089C27.0294 47.263 27.4014 47.35 27.8814 47.35C28.3254 47.35 28.6644 47.275 28.8984 47.125C29.1324 46.975 29.2494 46.774 29.2494 46.522C29.2494 46.33 29.1804 46.189 29.0424 46.099C28.9044 46.009 28.6674 45.949 28.3314 45.919L27.3414 45.82C27.1254 45.796 26.9424 45.751 26.7924 45.685C26.5104 45.829 26.3694 46.054 26.3694 46.36ZM32.835 46.099C32.385 46.099 31.995 46.003 31.665 45.811C31.335 45.613 31.077 45.34 30.891 44.992C30.711 44.638 30.621 44.227 30.621 43.759C30.621 43.297 30.708 42.889 30.882 42.535C31.056 42.181 31.296 41.905 31.602 41.707C31.908 41.503 32.259 41.401 32.655 41.401C33.237 41.401 33.696 41.599 34.032 41.995C34.374 42.385 34.545 42.91 34.545 43.57C34.545 43.636 34.542 43.714 34.536 43.804C34.53 43.894 34.521 43.969 34.509 44.029H31.296C31.344 44.485 31.503 44.845 31.773 45.109C32.043 45.367 32.409 45.496 32.871 45.496C33.327 45.496 33.729 45.379 34.077 45.145L34.356 45.631C34.164 45.781 33.936 45.898 33.672 45.982C33.414 46.06 33.135 46.099 32.835 46.099ZM32.655 42.004C32.277 42.004 31.968 42.139 31.728 42.409C31.488 42.673 31.347 43.027 31.305 43.471H33.906C33.888 43.003 33.771 42.643 33.555 42.391C33.345 42.133 33.045 42.004 32.655 42.004ZM35.6551 46V41.5H36.2401L36.2581 42.337C36.3961 42.055 36.6001 41.83 36.8701 41.662C37.1461 41.488 37.4551 41.401 37.7971 41.401C38.9191 41.401 39.4801 42.067 39.4801 43.399V46H38.8321V43.417C38.8321 42.949 38.7391 42.598 38.5531 42.364C38.3731 42.124 38.0881 42.004 37.6981 42.004C37.2781 42.004 36.9391 42.148 36.6811 42.436C36.4291 42.724 36.3031 43.102 36.3031 43.57V46H35.6551ZM42.7566 46.099C42.3066 46.099 41.9196 46.003 41.5956 45.811C41.2776 45.613 41.0316 45.34 40.8576 44.992C40.6836 44.638 40.5966 44.23 40.5966 43.768C40.5966 43.294 40.6836 42.88 40.8576 42.526C41.0376 42.172 41.2896 41.896 41.6136 41.698C41.9376 41.5 42.3156 41.401 42.7476 41.401C43.2756 41.401 43.7316 41.545 44.1156 41.833L43.8276 42.337C43.6656 42.229 43.4976 42.151 43.3236 42.103C43.1496 42.055 42.9696 42.031 42.7836 42.031C42.2916 42.031 41.9166 42.19 41.6586 42.508C41.4066 42.826 41.2806 43.24 41.2806 43.75C41.2806 44.278 41.4156 44.698 41.6856 45.01C41.9556 45.316 42.3366 45.469 42.8286 45.469C43.0266 45.469 43.2156 45.442 43.3956 45.388C43.5816 45.334 43.7676 45.253 43.9536 45.145L44.2326 45.631C44.0466 45.781 43.8246 45.898 43.5666 45.982C43.3086 46.06 43.0386 46.099 42.7566 46.099ZM45.5503 40.519C45.4183 40.519 45.3103 40.483 45.2263 40.411C45.1483 40.333 45.1093 40.225 45.1093 40.087C45.1093 39.949 45.1483 39.844 45.2263 39.772C45.3103 39.694 45.4183 39.655 45.5503 39.655C45.6823 39.655 45.7873 39.694 45.8653 39.772C45.9493 39.844 45.9913 39.949 45.9913 40.087C45.9913 40.225 45.9493 40.333 45.8653 40.411C45.7873 40.483 45.6823 40.519 45.5503 40.519ZM45.2263 46V41.5H45.8743V46H45.2263ZM48.5511 46.099C48.1071 46.099 47.7501 45.976 47.4801 45.73C47.2101 45.484 47.0751 45.151 47.0751 44.731C47.0751 44.287 47.2431 43.936 47.5791 43.678C47.9151 43.42 48.3831 43.291 48.9831 43.291C49.1571 43.291 49.3371 43.303 49.5231 43.327C49.7091 43.345 49.8921 43.378 50.0721 43.426V43.309C50.0721 42.853 49.9731 42.523 49.7751 42.319C49.5771 42.109 49.2621 42.004 48.8301 42.004C48.6081 42.004 48.3861 42.04 48.1641 42.112C47.9481 42.178 47.7441 42.271 47.5521 42.391L47.2821 41.914C47.5281 41.74 47.7921 41.611 48.0741 41.527C48.3621 41.443 48.6441 41.401 48.9201 41.401C50.1081 41.401 50.7021 42.046 50.7021 43.336V46H50.1171L50.0991 45.217C49.9491 45.499 49.7391 45.718 49.4691 45.874C49.2051 46.024 48.8991 46.099 48.5511 46.099ZM47.7321 44.695C47.7321 44.941 47.8161 45.136 47.9841 45.28C48.1581 45.424 48.3921 45.496 48.6861 45.496C49.1001 45.496 49.4301 45.361 49.6761 45.091C49.9221 44.815 50.0541 44.44 50.0721 43.966C49.8921 43.93 49.7181 43.906 49.5501 43.894C49.3821 43.876 49.2171 43.867 49.0551 43.867C48.1731 43.867 47.7321 44.143 47.7321 44.695ZM53.4312 46.099C53.1012 46.099 52.7952 46.054 52.5132 45.964C52.2312 45.874 51.9882 45.754 51.7842 45.604L52.0632 45.118C52.2552 45.232 52.4682 45.328 52.7022 45.406C52.9362 45.478 53.1822 45.514 53.4402 45.514C53.7582 45.514 54.0012 45.454 54.1692 45.334C54.3372 45.214 54.4212 45.043 54.4212 44.821C54.4212 44.641 54.3522 44.494 54.2142 44.38C54.0822 44.26 53.8602 44.164 53.5482 44.092L53.1432 43.993C52.2972 43.795 51.8742 43.357 51.8742 42.679C51.8742 42.289 52.0182 41.98 52.3062 41.752C52.6002 41.518 52.9872 41.401 53.4672 41.401C54.0372 41.401 54.5382 41.551 54.9702 41.851L54.7002 42.328C54.2982 42.1 53.8902 41.986 53.4762 41.986C53.1762 41.986 52.9452 42.046 52.7832 42.166C52.6212 42.28 52.5402 42.442 52.5402 42.652C52.5402 42.838 52.6062 42.991 52.7382 43.111C52.8762 43.225 53.1102 43.324 53.4402 43.408L53.8182 43.507C54.2502 43.615 54.5682 43.768 54.7722 43.966C54.9822 44.164 55.0872 44.431 55.0872 44.767C55.0872 45.181 54.9372 45.508 54.6372 45.748C54.3432 45.982 53.9412 46.099 53.4312 46.099Z" fill="#707070"/>
<path d="M5.37006 46V39.7H9.07806V40.33H6.05406V42.517H8.70906V43.147H6.05406V45.37H9.14106V46H5.37006ZM10.3777 46V41.5H10.9627L10.9807 42.292C11.1127 42.022 11.3047 41.806 11.5567 41.644C11.8147 41.482 12.1027 41.401 12.4207 41.401C13.1527 41.401 13.6267 41.737 13.8427 42.409C13.9627 42.097 14.1577 41.851 14.4277 41.671C14.7037 41.491 15.0127 41.401 15.3547 41.401C15.8767 41.401 16.2727 41.569 16.5427 41.905C16.8127 42.235 16.9477 42.718 16.9477 43.354V46H16.2997V43.39C16.2997 42.466 15.9667 42.004 15.3007 42.004C15.0427 42.004 14.8147 42.073 14.6167 42.211C14.4187 42.343 14.2627 42.529 14.1487 42.769C14.0407 43.003 13.9867 43.273 13.9867 43.579V46H13.3387V43.39C13.3387 42.466 13.0087 42.004 12.3487 42.004C12.0847 42.004 11.8537 42.073 11.6557 42.211C11.4577 42.343 11.3017 42.526 11.1877 42.76C11.0797 42.994 11.0257 43.261 11.0257 43.561V46H10.3777ZM20.2842 46.099C19.8342 46.099 19.4442 46.003 19.1142 45.811C18.7842 45.613 18.5262 45.34 18.3402 44.992C18.1602 44.638 18.0702 44.227 18.0702 43.759C18.0702 43.297 18.1572 42.889 18.3312 42.535C18.5052 42.181 18.7452 41.905 19.0512 41.707C19.3572 41.503 19.7082 41.401 20.1042 41.401C20.6862 41.401 21.1452 41.599 21.4812 41.995C21.8232 42.385 21.9942 42.91 21.9942 43.57C21.9942 43.636 21.9912 43.714 21.9852 43.804C21.9792 43.894 21.9702 43.969 21.9582 44.029H18.7452C18.7932 44.485 18.9522 44.845 19.2222 45.109C19.4922 45.367 19.8582 45.496 20.3202 45.496C20.7762 45.496 21.1782 45.379 21.5262 45.145L21.8052 45.631C21.6132 45.781 21.3852 45.898 21.1212 45.982C20.8632 46.06 20.5842 46.099 20.2842 46.099ZM20.1042 42.004C19.7262 42.004 19.4172 42.139 19.1772 42.409C18.9372 42.673 18.7962 43.027 18.7542 43.471H21.3552C21.3372 43.003 21.2202 42.643 21.0042 42.391C20.7942 42.133 20.4942 42.004 20.1042 42.004ZM23.1043 46V41.5H23.6893L23.7073 42.355C23.8273 42.055 23.9893 41.827 24.1933 41.671C24.3973 41.509 24.6373 41.428 24.9133 41.428C25.1953 41.428 25.4383 41.506 25.6423 41.662L25.3363 42.184C25.1983 42.106 25.0363 42.067 24.8503 42.067C24.5083 42.067 24.2383 42.229 24.0403 42.553C23.8483 42.877 23.7523 43.324 23.7523 43.894V46H23.1043ZM27.7734 44.587C27.4854 44.587 27.2244 44.539 26.9904 44.443C26.9424 44.539 26.9184 44.638 26.9184 44.74C26.9184 44.89 26.9604 45.001 27.0444 45.073C27.1344 45.145 27.2724 45.19 27.4584 45.208L28.4844 45.307C28.9464 45.349 29.2974 45.469 29.5374 45.667C29.7834 45.859 29.9064 46.132 29.9064 46.486C29.9064 46.936 29.7204 47.284 29.3484 47.53C28.9824 47.776 28.4784 47.899 27.8364 47.899C27.1824 47.899 26.6694 47.77 26.2974 47.512C25.9254 47.254 25.7394 46.897 25.7394 46.441C25.7394 46.207 25.7994 45.997 25.9194 45.811C26.0454 45.625 26.2134 45.481 26.4234 45.379C26.3334 45.247 26.2884 45.085 26.2884 44.893C26.2884 44.647 26.3754 44.413 26.5494 44.191C26.3754 44.047 26.2404 43.873 26.1444 43.669C26.0484 43.465 26.0004 43.24 26.0004 42.994C26.0004 42.682 26.0724 42.409 26.2164 42.175C26.3664 41.935 26.5734 41.746 26.8374 41.608C27.1074 41.47 27.4194 41.401 27.7734 41.401C28.1214 41.401 28.4304 41.47 28.7004 41.608H30.0054V42.067L29.2944 42.13C29.4624 42.382 29.5464 42.67 29.5464 42.994C29.5464 43.3 29.4714 43.573 29.3214 43.813C29.1774 44.053 28.9704 44.242 28.7004 44.38C28.4364 44.518 28.1274 44.587 27.7734 44.587ZM27.7734 44.02C28.1274 44.02 28.4034 43.927 28.6014 43.741C28.7994 43.555 28.8984 43.306 28.8984 42.994C28.8984 42.682 28.7994 42.433 28.6014 42.247C28.4034 42.061 28.1274 41.968 27.7734 41.968C27.4254 41.968 27.1494 42.061 26.9454 42.247C26.7474 42.433 26.6484 42.682 26.6484 42.994C26.6484 43.306 26.7474 43.555 26.9454 43.741C27.1494 43.927 27.4254 44.02 27.7734 44.02ZM26.3694 46.36C26.3694 46.672 26.5014 46.915 26.7654 47.089C27.0294 47.263 27.4014 47.35 27.8814 47.35C28.3254 47.35 28.6644 47.275 28.8984 47.125C29.1324 46.975 29.2494 46.774 29.2494 46.522C29.2494 46.33 29.1804 46.189 29.0424 46.099C28.9044 46.009 28.6674 45.949 28.3314 45.919L27.3414 45.82C27.1254 45.796 26.9424 45.751 26.7924 45.685C26.5104 45.829 26.3694 46.054 26.3694 46.36ZM32.835 46.099C32.385 46.099 31.995 46.003 31.665 45.811C31.335 45.613 31.077 45.34 30.891 44.992C30.711 44.638 30.621 44.227 30.621 43.759C30.621 43.297 30.708 42.889 30.882 42.535C31.056 42.181 31.296 41.905 31.602 41.707C31.908 41.503 32.259 41.401 32.655 41.401C33.237 41.401 33.696 41.599 34.032 41.995C34.374 42.385 34.545 42.91 34.545 43.57C34.545 43.636 34.542 43.714 34.536 43.804C34.53 43.894 34.521 43.969 34.509 44.029H31.296C31.344 44.485 31.503 44.845 31.773 45.109C32.043 45.367 32.409 45.496 32.871 45.496C33.327 45.496 33.729 45.379 34.077 45.145L34.356 45.631C34.164 45.781 33.936 45.898 33.672 45.982C33.414 46.06 33.135 46.099 32.835 46.099ZM32.655 42.004C32.277 42.004 31.968 42.139 31.728 42.409C31.488 42.673 31.347 43.027 31.305 43.471H33.906C33.888 43.003 33.771 42.643 33.555 42.391C33.345 42.133 33.045 42.004 32.655 42.004ZM35.6551 46V41.5H36.2401L36.2581 42.337C36.3961 42.055 36.6001 41.83 36.8701 41.662C37.1461 41.488 37.4551 41.401 37.7971 41.401C38.9191 41.401 39.4801 42.067 39.4801 43.399V46H38.8321V43.417C38.8321 42.949 38.7391 42.598 38.5531 42.364C38.3731 42.124 38.0881 42.004 37.6981 42.004C37.2781 42.004 36.9391 42.148 36.6811 42.436C36.4291 42.724 36.3031 43.102 36.3031 43.57V46H35.6551ZM42.7566 46.099C42.3066 46.099 41.9196 46.003 41.5956 45.811C41.2776 45.613 41.0316 45.34 40.8576 44.992C40.6836 44.638 40.5966 44.23 40.5966 43.768C40.5966 43.294 40.6836 42.88 40.8576 42.526C41.0376 42.172 41.2896 41.896 41.6136 41.698C41.9376 41.5 42.3156 41.401 42.7476 41.401C43.2756 41.401 43.7316 41.545 44.1156 41.833L43.8276 42.337C43.6656 42.229 43.4976 42.151 43.3236 42.103C43.1496 42.055 42.9696 42.031 42.7836 42.031C42.2916 42.031 41.9166 42.19 41.6586 42.508C41.4066 42.826 41.2806 43.24 41.2806 43.75C41.2806 44.278 41.4156 44.698 41.6856 45.01C41.9556 45.316 42.3366 45.469 42.8286 45.469C43.0266 45.469 43.2156 45.442 43.3956 45.388C43.5816 45.334 43.7676 45.253 43.9536 45.145L44.2326 45.631C44.0466 45.781 43.8246 45.898 43.5666 45.982C43.3086 46.06 43.0386 46.099 42.7566 46.099ZM45.5503 40.519C45.4183 40.519 45.3103 40.483 45.2263 40.411C45.1483 40.333 45.1093 40.225 45.1093 40.087C45.1093 39.949 45.1483 39.844 45.2263 39.772C45.3103 39.694 45.4183 39.655 45.5503 39.655C45.6823 39.655 45.7873 39.694 45.8653 39.772C45.9493 39.844 45.9913 39.949 45.9913 40.087C45.9913 40.225 45.9493 40.333 45.8653 40.411C45.7873 40.483 45.6823 40.519 45.5503 40.519ZM45.2263 46V41.5H45.8743V46H45.2263ZM48.5511 46.099C48.1071 46.099 47.7501 45.976 47.4801 45.73C47.2101 45.484 47.0751 45.151 47.0751 44.731C47.0751 44.287 47.2431 43.936 47.5791 43.678C47.9151 43.42 48.3831 43.291 48.9831 43.291C49.1571 43.291 49.3371 43.303 49.5231 43.327C49.7091 43.345 49.8921 43.378 50.0721 43.426V43.309C50.0721 42.853 49.9731 42.523 49.7751 42.319C49.5771 42.109 49.2621 42.004 48.8301 42.004C48.6081 42.004 48.3861 42.04 48.1641 42.112C47.9481 42.178 47.7441 42.271 47.5521 42.391L47.2821 41.914C47.5281 41.74 47.7921 41.611 48.0741 41.527C48.3621 41.443 48.6441 41.401 48.9201 41.401C50.1081 41.401 50.7021 42.046 50.7021 43.336V46H50.1171L50.0991 45.217C49.9491 45.499 49.7391 45.718 49.4691 45.874C49.2051 46.024 48.8991 46.099 48.5511 46.099ZM47.7321 44.695C47.7321 44.941 47.8161 45.136 47.9841 45.28C48.1581 45.424 48.3921 45.496 48.6861 45.496C49.1001 45.496 49.4301 45.361 49.6761 45.091C49.9221 44.815 50.0541 44.44 50.0721 43.966C49.8921 43.93 49.7181 43.906 49.5501 43.894C49.3821 43.876 49.2171 43.867 49.0551 43.867C48.1731 43.867 47.7321 44.143 47.7321 44.695ZM53.4312 46.099C53.1012 46.099 52.7952 46.054 52.5132 45.964C52.2312 45.874 51.9882 45.754 51.7842 45.604L52.0632 45.118C52.2552 45.232 52.4682 45.328 52.7022 45.406C52.9362 45.478 53.1822 45.514 53.4402 45.514C53.7582 45.514 54.0012 45.454 54.1692 45.334C54.3372 45.214 54.4212 45.043 54.4212 44.821C54.4212 44.641 54.3522 44.494 54.2142 44.38C54.0822 44.26 53.8602 44.164 53.5482 44.092L53.1432 43.993C52.2972 43.795 51.8742 43.357 51.8742 42.679C51.8742 42.289 52.0182 41.98 52.3062 41.752C52.6002 41.518 52.9872 41.401 53.4672 41.401C54.0372 41.401 54.5382 41.551 54.9702 41.851L54.7002 42.328C54.2982 42.1 53.8902 41.986 53.4762 41.986C53.1762 41.986 52.9452 42.046 52.7832 42.166C52.6212 42.28 52.5402 42.442 52.5402 42.652C52.5402 42.838 52.6062 42.991 52.7382 43.111C52.8762 43.225 53.1102 43.324 53.4402 43.408L53.8182 43.507C54.2502 43.615 54.5682 43.768 54.7722 43.966C54.9822 44.164 55.0872 44.431 55.0872 44.767C55.0872 45.181 54.9372 45.508 54.6372 45.748C54.3432 45.982 53.9412 46.099 53.4312 46.099Z" fill="#707070"/>
<path d="M5.37006 46V39.7H9.07806V40.33H6.05406V42.517H8.70906V43.147H6.05406V45.37H9.14106V46H5.37006ZM10.3777 46V41.5H10.9627L10.9807 42.292C11.1127 42.022 11.3047 41.806 11.5567 41.644C11.8147 41.482 12.1027 41.401 12.4207 41.401C13.1527 41.401 13.6267 41.737 13.8427 42.409C13.9627 42.097 14.1577 41.851 14.4277 41.671C14.7037 41.491 15.0127 41.401 15.3547 41.401C15.8767 41.401 16.2727 41.569 16.5427 41.905C16.8127 42.235 16.9477 42.718 16.9477 43.354V46H16.2997V43.39C16.2997 42.466 15.9667 42.004 15.3007 42.004C15.0427 42.004 14.8147 42.073 14.6167 42.211C14.4187 42.343 14.2627 42.529 14.1487 42.769C14.0407 43.003 13.9867 43.273 13.9867 43.579V46H13.3387V43.39C13.3387 42.466 13.0087 42.004 12.3487 42.004C12.0847 42.004 11.8537 42.073 11.6557 42.211C11.4577 42.343 11.3017 42.526 11.1877 42.76C11.0797 42.994 11.0257 43.261 11.0257 43.561V46H10.3777ZM20.2842 46.099C19.8342 46.099 19.4442 46.003 19.1142 45.811C18.7842 45.613 18.5262 45.34 18.3402 44.992C18.1602 44.638 18.0702 44.227 18.0702 43.759C18.0702 43.297 18.1572 42.889 18.3312 42.535C18.5052 42.181 18.7452 41.905 19.0512 41.707C19.3572 41.503 19.7082 41.401 20.1042 41.401C20.6862 41.401 21.1452 41.599 21.4812 41.995C21.8232 42.385 21.9942 42.91 21.9942 43.57C21.9942 43.636 21.9912 43.714 21.9852 43.804C21.9792 43.894 21.9702 43.969 21.9582 44.029H18.7452C18.7932 44.485 18.9522 44.845 19.2222 45.109C19.4922 45.367 19.8582 45.496 20.3202 45.496C20.7762 45.496 21.1782 45.379 21.5262 45.145L21.8052 45.631C21.6132 45.781 21.3852 45.898 21.1212 45.982C20.8632 46.06 20.5842 46.099 20.2842 46.099ZM20.1042 42.004C19.7262 42.004 19.4172 42.139 19.1772 42.409C18.9372 42.673 18.7962 43.027 18.7542 43.471H21.3552C21.3372 43.003 21.2202 42.643 21.0042 42.391C20.7942 42.133 20.4942 42.004 20.1042 42.004ZM23.1043 46V41.5H23.6893L23.7073 42.355C23.8273 42.055 23.9893 41.827 24.1933 41.671C24.3973 41.509 24.6373 41.428 24.9133 41.428C25.1953 41.428 25.4383 41.506 25.6423 41.662L25.3363 42.184C25.1983 42.106 25.0363 42.067 24.8503 42.067C24.5083 42.067 24.2383 42.229 24.0403 42.553C23.8483 42.877 23.7523 43.324 23.7523 43.894V46H23.1043ZM27.7734 44.587C27.4854 44.587 27.2244 44.539 26.9904 44.443C26.9424 44.539 26.9184 44.638 26.9184 44.74C26.9184 44.89 26.9604 45.001 27.0444 45.073C27.1344 45.145 27.2724 45.19 27.4584 45.208L28.4844 45.307C28.9464 45.349 29.2974 45.469 29.5374 45.667C29.7834 45.859 29.9064 46.132 29.9064 46.486C29.9064 46.936 29.7204 47.284 29.3484 47.53C28.9824 47.776 28.4784 47.899 27.8364 47.899C27.1824 47.899 26.6694 47.77 26.2974 47.512C25.9254 47.254 25.7394 46.897 25.7394 46.441C25.7394 46.207 25.7994 45.997 25.9194 45.811C26.0454 45.625 26.2134 45.481 26.4234 45.379C26.3334 45.247 26.2884 45.085 26.2884 44.893C26.2884 44.647 26.3754 44.413 26.5494 44.191C26.3754 44.047 26.2404 43.873 26.1444 43.669C26.0484 43.465 26.0004 43.24 26.0004 42.994C26.0004 42.682 26.0724 42.409 26.2164 42.175C26.3664 41.935 26.5734 41.746 26.8374 41.608C27.1074 41.47 27.4194 41.401 27.7734 41.401C28.1214 41.401 28.4304 41.47 28.7004 41.608H30.0054V42.067L29.2944 42.13C29.4624 42.382 29.5464 42.67 29.5464 42.994C29.5464 43.3 29.4714 43.573 29.3214 43.813C29.1774 44.053 28.9704 44.242 28.7004 44.38C28.4364 44.518 28.1274 44.587 27.7734 44.587ZM27.7734 44.02C28.1274 44.02 28.4034 43.927 28.6014 43.741C28.7994 43.555 28.8984 43.306 28.8984 42.994C28.8984 42.682 28.7994 42.433 28.6014 42.247C28.4034 42.061 28.1274 41.968 27.7734 41.968C27.4254 41.968 27.1494 42.061 26.9454 42.247C26.7474 42.433 26.6484 42.682 26.6484 42.994C26.6484 43.306 26.7474 43.555 26.9454 43.741C27.1494 43.927 27.4254 44.02 27.7734 44.02ZM26.3694 46.36C26.3694 46.672 26.5014 46.915 26.7654 47.089C27.0294 47.263 27.4014 47.35 27.8814 47.35C28.3254 47.35 28.6644 47.275 28.8984 47.125C29.1324 46.975 29.2494 46.774 29.2494 46.522C29.2494 46.33 29.1804 46.189 29.0424 46.099C28.9044 46.009 28.6674 45.949 28.3314 45.919L27.3414 45.82C27.1254 45.796 26.9424 45.751 26.7924 45.685C26.5104 45.829 26.3694 46.054 26.3694 46.36ZM32.835 46.099C32.385 46.099 31.995 46.003 31.665 45.811C31.335 45.613 31.077 45.34 30.891 44.992C30.711 44.638 30.621 44.227 30.621 43.759C30.621 43.297 30.708 42.889 30.882 42.535C31.056 42.181 31.296 41.905 31.602 41.707C31.908 41.503 32.259 41.401 32.655 41.401C33.237 41.401 33.696 41.599 34.032 41.995C34.374 42.385 34.545 42.91 34.545 43.57C34.545 43.636 34.542 43.714 34.536 43.804C34.53 43.894 34.521 43.969 34.509 44.029H31.296C31.344 44.485 31.503 44.845 31.773 45.109C32.043 45.367 32.409 45.496 32.871 45.496C33.327 45.496 33.729 45.379 34.077 45.145L34.356 45.631C34.164 45.781 33.936 45.898 33.672 45.982C33.414 46.06 33.135 46.099 32.835 46.099ZM32.655 42.004C32.277 42.004 31.968 42.139 31.728 42.409C31.488 42.673 31.347 43.027 31.305 43.471H33.906C33.888 43.003 33.771 42.643 33.555 42.391C33.345 42.133 33.045 42.004 32.655 42.004ZM35.6551 46V41.5H36.2401L36.2581 42.337C36.3961 42.055 36.6001 41.83 36.8701 41.662C37.1461 41.488 37.4551 41.401 37.7971 41.401C38.9191 41.401 39.4801 42.067 39.4801 43.399V46H38.8321V43.417C38.8321 42.949 38.7391 42.598 38.5531 42.364C38.3731 42.124 38.0881 42.004 37.6981 42.004C37.2781 42.004 36.9391 42.148 36.6811 42.436C36.4291 42.724 36.3031 43.102 36.3031 43.57V46H35.6551ZM42.7566 46.099C42.3066 46.099 41.9196 46.003 41.5956 45.811C41.2776 45.613 41.0316 45.34 40.8576 44.992C40.6836 44.638 40.5966 44.23 40.5966 43.768C40.5966 43.294 40.6836 42.88 40.8576 42.526C41.0376 42.172 41.2896 41.896 41.6136 41.698C41.9376 41.5 42.3156 41.401 42.7476 41.401C43.2756 41.401 43.7316 41.545 44.1156 41.833L43.8276 42.337C43.6656 42.229 43.4976 42.151 43.3236 42.103C43.1496 42.055 42.9696 42.031 42.7836 42.031C42.2916 42.031 41.9166 42.19 41.6586 42.508C41.4066 42.826 41.2806 43.24 41.2806 43.75C41.2806 44.278 41.4156 44.698 41.6856 45.01C41.9556 45.316 42.3366 45.469 42.8286 45.469C43.0266 45.469 43.2156 45.442 43.3956 45.388C43.5816 45.334 43.7676 45.253 43.9536 45.145L44.2326 45.631C44.0466 45.781 43.8246 45.898 43.5666 45.982C43.3086 46.06 43.0386 46.099 42.7566 46.099ZM45.5503 40.519C45.4183 40.519 45.3103 40.483 45.2263 40.411C45.1483 40.333 45.1093 40.225 45.1093 40.087C45.1093 39.949 45.1483 39.844 45.2263 39.772C45.3103 39.694 45.4183 39.655 45.5503 39.655C45.6823 39.655 45.7873 39.694 45.8653 39.772C45.9493 39.844 45.9913 39.949 45.9913 40.087C45.9913 40.225 45.9493 40.333 45.8653 40.411C45.7873 40.483 45.6823 40.519 45.5503 40.519ZM45.2263 46V41.5H45.8743V46H45.2263ZM48.5511 46.099C48.1071 46.099 47.7501 45.976 47.4801 45.73C47.2101 45.484 47.0751 45.151 47.0751 44.731C47.0751 44.287 47.2431 43.936 47.5791 43.678C47.9151 43.42 48.3831 43.291 48.9831 43.291C49.1571 43.291 49.3371 43.303 49.5231 43.327C49.7091 43.345 49.8921 43.378 50.0721 43.426V43.309C50.0721 42.853 49.9731 42.523 49.7751 42.319C49.5771 42.109 49.2621 42.004 48.8301 42.004C48.6081 42.004 48.3861 42.04 48.1641 42.112C47.9481 42.178 47.7441 42.271 47.5521 42.391L47.2821 41.914C47.5281 41.74 47.7921 41.611 48.0741 41.527C48.3621 41.443 48.6441 41.401 48.9201 41.401C50.1081 41.401 50.7021 42.046 50.7021 43.336V46H50.1171L50.0991 45.217C49.9491 45.499 49.7391 45.718 49.4691 45.874C49.2051 46.024 48.8991 46.099 48.5511 46.099ZM47.7321 44.695C47.7321 44.941 47.8161 45.136 47.9841 45.28C48.1581 45.424 48.3921 45.496 48.6861 45.496C49.1001 45.496 49.4301 45.361 49.6761 45.091C49.9221 44.815 50.0541 44.44 50.0721 43.966C49.8921 43.93 49.7181 43.906 49.5501 43.894C49.3821 43.876 49.2171 43.867 49.0551 43.867C48.1731 43.867 47.7321 44.143 47.7321 44.695ZM53.4312 46.099C53.1012 46.099 52.7952 46.054 52.5132 45.964C52.2312 45.874 51.9882 45.754 51.7842 45.604L52.0632 45.118C52.2552 45.232 52.4682 45.328 52.7022 45.406C52.9362 45.478 53.1822 45.514 53.4402 45.514C53.7582 45.514 54.0012 45.454 54.1692 45.334C54.3372 45.214 54.4212 45.043 54.4212 44.821C54.4212 44.641 54.3522 44.494 54.2142 44.38C54.0822 44.26 53.8602 44.164 53.5482 44.092L53.1432 43.993C52.2972 43.795 51.8742 43.357 51.8742 42.679C51.8742 42.289 52.0182 41.98 52.3062 41.752C52.6002 41.518 52.9872 41.401 53.4672 41.401C54.0372 41.401 54.5382 41.551 54.9702 41.851L54.7002 42.328C54.2982 42.1 53.8902 41.986 53.4762 41.986C53.1762 41.986 52.9452 42.046 52.7832 42.166C52.6212 42.28 52.5402 42.442 52.5402 42.652C52.5402 42.838 52.6062 42.991 52.7382 43.111C52.8762 43.225 53.1102 43.324 53.4402 43.408L53.8182 43.507C54.2502 43.615 54.5682 43.768 54.7722 43.966C54.9822 44.164 55.0872 44.431 55.0872 44.767C55.0872 45.181 54.9372 45.508 54.6372 45.748C54.3432 45.982 53.9412 46.099 53.4312 46.099Z" fill="#707070"/>
<path d="M26.0681 13C27.6077 10.3333 31.4567 10.3333 32.9963 13L42.5226 29.5C44.0622 32.1667 42.1377 35.5 39.0585 35.5H20.006C16.9268 35.5 15.0023 32.1667 16.5419 29.5L26.0681 13Z" fill="#FB6330"/>
<path fill-rule="evenodd" clip-rule="evenodd" d="M29.5322 22C30.05 22 30.4697 22.4197 30.4697 22.9375V30.3769C30.4697 30.8947 30.05 31.3144 29.5322 31.3144C29.0145 31.3144 28.5947 30.8947 28.5947 30.3769V22.9375C28.5947 22.4197 29.0145 22 29.5322 22Z" fill="white"/>
<path d="M29.5321 20.28C30.2658 20.28 30.8605 19.6852 30.8605 18.9515C30.8605 18.2178 30.2658 17.623 29.5321 17.623C28.7984 17.623 28.2036 18.2178 28.2036 18.9515C28.2036 19.6852 28.7984 20.28 29.5321 20.28Z" fill="white"/>
</svg>
